HIERARCHY
ROOT Hips
{
	OFFSET 0.00 0.00 0.00
	CHANNELS 6 Xposition Yposition Zposition Xrotation Yrotation Zrotation
	JOINT Spine
	{
		OFFSET 0.00000 2.10617 3.15926
		CHANNELS 3 Xrotation Yrotation Zrotation
		JOINT Spine1
		{
			OFFSET 0.00000 0.73147 4.14835
			CHANNELS 3 Xrotation Yrotation Zrotation
			JOINT Spine2
			{
				OFFSET 0.00000 0.36713 4.19631
				CHANNELS 3 Xrotation Yrotation Zrotation
				JOINT Spine3
				{
					OFFSET 0.00000 0.00000 4.21234
					CHANNELS 3 Xrotation Yrotation Zrotation
					JOINT Neck
					{
						OFFSET 0.00000 -1.57962 11.05740
						CHANNELS 3 Xrotation Yrotation Zrotation
						JOINT Head
						{
							OFFSET 0.00000 -1.00576 5.70398
							CHANNELS 3 Xrotation Yrotation Zrotation
							End Site
							{
								OFFSET 0.00000 0.00001 6.81873
							}
						}
					}
					JOINT RightShoulder
					{
						OFFSET -1.28113 -2.13521 6.91810
						CHANNELS 3 Xrotation Yrotation Zrotation
						JOINT RightArm
						{
							OFFSET -6.36294 0.00000 0.00000
							CHANNELS 3 Xrotation Yrotation Zrotation
							JOINT RightForeArm
							{
								OFFSET -10.12221 0.00000 0.00000
								CHANNELS 3 Xrotation Yrotation Zrotation
								JOINT RightHand
								{
									OFFSET -10.76713 0.00000 0.00000
									CHANNELS 3 Xrotation Yrotation Zrotation
									JOINT RightHandEnd
									{
										OFFSET -2.78915 0.00000 0.00000
										CHANNELS 3 Xrotation Yrotation Zrotation
										End Site
										{
											OFFSET -2.78915 0.00000 0.00000
										}
									}
									JOINT RightHandThumb1
									{
										OFFSET -1.11566 -1.85944 -0.74377
										CHANNELS 3 Yrotation Xrotation Zrotation
										End Site
										{
											OFFSET -2.69412 -0.72189 0.00000
										}
									}
								}
							}
						}
					}
					JOINT LeftShoulder
					{
						OFFSET 1.28113 -2.13521 6.91810
						CHANNELS 3 Xrotation Yrotation Zrotation
						JOINT LeftArm
						{
							OFFSET 6.36294 0.00000 0.00000
							CHANNELS 3 Xrotation Yrotation Zrotation
							JOINT LeftForeArm
							{
								OFFSET 10.12221 0.00000 0.00000
								CHANNELS 3 Xrotation Yrotation Zrotation
								JOINT LeftHand
								{
									OFFSET 10.76713 0.00000 0.00000
									CHANNELS 3 Xrotation Yrotation Zrotation
									JOINT LeftHandEnd
									{
										OFFSET 2.78915 0.00000 0.00000
										CHANNELS 3 Xrotation Yrotation Zrotation
										End Site
										{
											OFFSET 2.78915 0.00000 0.00000
										}
									}
									JOINT LeftHandThumb1
									{
										OFFSET 1.11566 -1.85944 -0.74377
										CHANNELS 3 Yrotation Xrotation Zrotation
										End Site
										{
											OFFSET 2.69412 -0.72189 0.00000
										}
									}
								}
							}
						}
					}
				}
			}
		}
	}
	JOINT RightUpLeg
	{
		OFFSET -3.80068 0.00000 -1.11031
		CHANNELS 3 Xrotation Yrotation Zrotation
		JOINT RightLeg
		{
			OFFSET 0.00001 0.00000 -17.00167
			CHANNELS 3 Xrotation Yrotation Zrotation
			JOINT RightFoot
			{
				OFFSET 0.00001 0.00000 -17.96841
				CHANNELS 3 Xrotation Yrotation Zrotation
				JOINT RightToeBase
				{
					OFFSET 0.00000 -5.07501 -1.84715
					CHANNELS 3 Xrotation Yrotation Zrotation
					End Site
					{
						OFFSET 0.00000 -3.07471 -0.00000
					}
				}
			}
		}
	}
	JOINT LeftUpLeg
	{
		OFFSET 3.80068 0.00000 -1.11031
		CHANNELS 3 Xrotation Yrotation Zrotation
		JOINT LeftLeg
		{
			OFFSET 0.00001 0.00000 -17.00167
			CHANNELS 3 Xrotation Yrotation Zrotation
			JOINT LeftFoot
			{
				OFFSET 0.00001 0.00000 -17.96841
				CHANNELS 3 Xrotation Yrotation Zrotation
				JOINT LeftToeBase
				{
					OFFSET 0.00000 -5.07501 -1.84715
					CHANNELS 3 Xrotation Yrotation Zrotation
					End Site
					{
						OFFSET 0.00000 -3.07471 -0.00000
					}
				}
			}
		}
	}
}
MOTION
Frames: 7
Frame Time: 0.008342
 0.8683 -69.0920 38.1638 -2.1848 -1.0568 177.9551 -1.4902 0.4500 0.3176 -0.5547 -0.4807 0.0027 2.7191 -1.4390 0.4637 0.1268 -0.3792 0.8265 -2.8996 2.1197 -0.7554 0.1834 -0.5449 -0.6670 -7.1004 13.5472 3.9410 12.6665 -23.7307 -13.5903 0.0000 0.0000 14.2985 5.0263 3.5392 -1.1914 0.0000 0.0000 -0.0000 -0.0000 0.0000 0.0000 -9.3510 -12.7028 -3.5342 1.9489 25.5514 17.6233 -0.0000 -0.0000 -10.5954 -1.8531 -5.9100 3.7296 -0.0000 0.0000 -0.0000 0.0000 0.0000 0.0000 -4.1832 2.7481 -21.9426 6.4286 0.0000 0.0000 -1.8477 -9.1925 0.1715 -0.2166 0.0000 -0.0000 -2.1920 -2.8115 21.7647 4.7777 0.0000 0.0000 -8.1523 20.8796 3.7216 13.0151 0.0000 0.0000
 0.8689 -69.0923 38.1637 -2.1885 -1.0566 177.9655 -1.4899 0.4526 0.3173 -0.5563 -0.4788 0.0023 2.7214 -1.4411 0.4619 0.1262 -0.3804 0.8273 -2.9074 2.1282 -0.7572 0.1819 -0.5511 -0.6750 -7.1072 13.5253 3.9385 12.6012 -23.7029 -13.6260 0.0000 0.0000 14.3128 4.9339 3.4701 -1.2442 -0.0000 -0.0000 0.0000 0.0000 0.0000 -0.0000 -9.3556 -12.6779 -3.5493 2.0114 25.5390 17.5987 -0.0000 -0.0000 -10.6058 -1.7946 -5.9038 3.7521 0.0000 0.0000 0.0000 0.0000 0.0000 0.0000 -4.1895 2.7483 -21.9338 6.4354 0.0000 0.0000 -1.8546 -9.1905 0.1531 -0.2183 0.0000 -0.0000 -2.1979 -2.8120 21.7532 4.7777 0.0000 0.0000 -8.1519 20.8818 3.7226 13.0173 0.0000 0.0000
 0.8697 -69.0932 38.1634 -2.1999 -1.0567 177.9810 -1.4954 0.4559 0.3159 -0.5586 -0.4745 0.0043 2.7246 -1.4455 0.4557 0.1260 -0.3818 0.8288 -2.9201 2.1387 -0.7598 0.1820 -0.5601 -0.6854 -7.1130 13.4956 3.9298 12.5240 -23.6669 -13.6591 0.0000 0.0000 14.3239 4.8221 3.3898 -1.3111 0.0000 0.0000 -0.0000 -0.0000 -0.0000 0.0000 -9.3550 -12.6500 -3.5592 2.0844 25.5282 17.5526 -0.0000 -0.0000 -10.6106 -1.7215 -5.9089 3.7783 -0.0000 0.0000 -0.0000 0.0000 0.0000 0.0000 -4.2063 2.7484 -21.9234 6.4469 0.0000 0.0000 -1.8643 -9.1873 0.1281 -0.2198 0.0000 -0.0000 -2.2155 -2.8139 21.7345 4.7815 0.0000 0.0000 -8.1527 20.8845 3.7256 13.0190 0.0000 0.0000
 0.8708 -69.0929 38.1632 -2.1998 -1.0570 178.0012 -1.4921 0.4598 0.3154 -0.5559 -0.4718 0.0022 2.7258 -1.4461 0.4542 0.1258 -0.3832 0.8278 -2.9332 2.1495 -0.7648 0.1772 -0.5710 -0.6977 -7.1133 13.4606 3.9125 12.4380 -23.6267 -13.6845 0.0000 0.0000 14.3285 4.6983 3.3025 -1.3895 -0.0000 -0.0000 0.0000 0.0000 -0.0000 0.0000 -9.3526 -12.6209 -3.5727 2.1636 25.5166 17.4993 -0.0000 -0.0000 -10.6143 -1.6346 -5.9140 3.8088 -0.0000 0.0000 -0.0000 -0.0000 0.0000 0.0000 -4.2075 2.7481 -21.9157 6.4560 0.0000 0.0000 -1.8757 -9.1848 0.1015 -0.2219 0.0000 -0.0000 -2.2169 -2.8147 21.7162 4.7786 0.0000 0.0000 -8.1497 20.8895 3.7235 13.0208 0.0000 0.0000
 0.8723 -69.0938 38.1629 -2.2141 -1.0577 178.0272 -1.4982 0.4646 0.3129 -0.5596 -0.4645 0.0049 2.7312 -1.4523 0.4440 0.1251 -0.3854 0.8296 -2.9485 2.1639 -0.7703 0.1738 -0.5854 -0.7130 -7.1206 13.4135 3.8990 12.3497 -23.5751 -13.7199 0.0000 0.0000 14.3326 4.5741 3.2082 -1.4761 0.0000 -0.0000 -0.0000 -0.0000 -0.0000 0.0000 -9.3561 -12.5792 -3.5948 2.2471 25.4941 17.4517 -0.0000 -0.0000 -10.6223 -1.5391 -5.9175 3.8461 -0.0000 -0.0000 -0.0000 -0.0000 -0.0000 0.0000 -4.2282 2.7475 -21.9061 6.4723 0.0000 0.0000 -1.8903 -9.1806 0.0669 -0.2239 0.0000 -0.0000 -2.2399 -2.8183 21.6877 4.7840 0.0000 0.0000 -8.1499 20.8946 3.7256 13.0216 0.0000 0.0000
 0.8739 -69.0931 38.1625 -2.2139 -1.0581 178.0570 -1.4933 0.4723 0.3126 -0.5566 -0.4610 0.0019 2.7321 -1.4550 0.4387 0.1253 -0.3866 0.8283 -2.9622 2.1775 -0.7777 0.1641 -0.6010 -0.7298 -7.1234 13.3624 3.8792 12.2662 -23.5221 -13.7436 0.0000 0.0000 14.3275 4.4526 3.1164 -1.5666 -0.0000 -0.0000 0.0000 -0.0000 -0.0000 0.0000 -9.3530 -12.5405 -3.6140 2.3230 25.4729 17.3948 -0.0000 -0.0000 -10.6252 -1.4408 -5.9209 3.8854 -0.0000 -0.0000 0.0000 -0.0000 0.0000 0.0000 -4.2296 2.7475 -21.9027 6.4861 0.0000 0.0000 -1.9065 -9.1772 0.0351 -0.2261 0.0000 -0.0000 -2.2420 -2.8197 21.6617 4.7808 0.0000 0.0000 -8.1451 20.9017 3.7217 13.0215 0.0000 0.0000
 0.8760 -69.0933 38.1621 -2.2250 -1.0594 178.0923 -1.4969 0.4789 0.3095 -0.5591 -0.4515 0.0049 2.7381 -1.4627 0.4243 0.1246 -0.3889 0.8295 -2.9755 2.1933 -0.7861 0.1544 -0.6193 -0.7486 -7.1291 13.3027 3.8608 12.1904 -23.4621 -13.7676 0.0000 0.0000 14.3162 4.3476 3.0296 -1.6564 0.0000 -0.0000 -0.0000 -0.0000 0.0000 -0.0000 -9.3560 -12.4919 -3.6417 2.3886 25.4398 17.3523 -0.0000 -0.0000 -10.6328 -1.3437 -5.9171 3.9303 0.0000 -0.0000 0.0000 0.0000 0.0000 0.0000 -4.2455 2.7465 -21.9000 6.5045 0.0000 0.0000 -1.9246 -9.1727 -0.0021 -0.2278 0.0000 -0.0000 -2.2615 -2.8241 21.6272 4.7846 0.0000 0.0000 -8.1429 20.9086 3.7205 13.0202 0.0000 0.0000
